<?xml version="1.0" standalone="no"?>
<!DOCTYPE svg PUBLIC "-//W3C//DTD SVG 20010904//EN"
 "http://www.w3.org/TR/2001/REC-SVG-20010904/DTD/svg10.dtd">
<svg version="1.0" xmlns="http://www.w3.org/2000/svg"
 width="512.000000pt" height="512.000000pt" viewBox="0 0 512.000000 512.000000"
 preserveAspectRatio="xMidYMid meet">
<metadata>
Created by potrace 1.11, written by Peter Selinger 2001-2013
</metadata>
<g transform="translate(0.000000,512.000000) scale(0.100000,-0.100000)"
fill="#000000" stroke="none">
<path d="M2305 5109 c-495 -50 -959 -241 -1355 -556 -107 -85 -294 -272 -383
-383 -271 -337 -468 -773 -532 -1175 -37 -233 -42 -606 -12 -795 24 -142 27
-162 37 -200 5 -19 11 -46 14 -60 3 -14 14 -56 25 -95 95 -323 255 -630 468
-895 87 -109 276 -297 378 -378 44 -35 87 -69 95 -75 23 -19 181 -122 230
-151 178 -104 460 -222 627 -261 119 -28 196 -45 233 -50 25 -3 52 -8 60 -10
92 -23 564 -28 700 -7 374 58 708 173 955 327 28 17 57 34 65 37 26 10 242
167 310 226 116 100 189 182 223 251 30 61 32 73 32 166 0 90 -3 106 -29 159
-73 148 -207 229 -368 222 -116 -5 -199 -47 -296 -151 -47 -50 -183 -157 -267
-210 -176 -112 -435 -213 -625 -245 -36 -6 -76 -13 -90 -16 -14 -3 -104 -7
-200 -9 -288 -6 -493 32 -746 141 -442 188 -792 554 -969 1012 -76 199 -109
384 -110 617 0 188 7 269 35 395 166 744 770 1296 1530 1398 71 9 357 9 435 0
233 -28 445 -100 685 -229 94 -51 293 -205 345 -267 71 -84 190 -134 307 -128
151 7 273 90 337 226 23 48 26 68 26 155 0 93 -2 105 -32 165 -56 114 -285
325 -491 451 -15 9 -54 33 -87 54 -84 51 -283 147 -393 189 -191 73 -406 125
-616 150 -119 14 -436 17 -551 5z"/>
<path d="M3140 3645 c-30 -7 -55 -13 -55 -13 0 1 -18 -5 -40 -12 -129 -41
-260 -137 -352 -256 -60 -78 -124 -219 -138 -306 -3 -18 -8 -45 -11 -60 -3
-14 -5 -62 -5 -105 -1 -259 65 -440 211 -583 172 -167 472 -210 682 -98 31 16
65 38 77 49 36 33 40 21 20 -53 -49 -176 -152 -284 -328 -343 -91 -31 -166
-42 -319 -45 -10 0 -12 -44 -11 -201 l2 -201 96 3 c53 2 114 6 136 10 22 4 56
10 75 13 19 3 76 17 125 31 308 89 553 311 668 605 28 70 63 201 71 265 3 22
8 60 11 84 9 60 9 421 0 491 -21 186 -108 394 -211 505 -97 105 -241 188 -381
221 -56 13 -267 12 -323 -1z m274 -411 c50 -32 88 -83 110 -148 22 -64 28
-124 31 -286 1 -111 -2 -141 -16 -170 -52 -106 -231 -152 -341 -88 -70 41
-124 127 -143 225 -7 37 -8 210 -1 221 3 5 7 21 10 35 8 47 56 141 89 176 71
74 176 89 261 35z"/>
<path d="M2065 3611 c-27 -10 -90 -32 -140 -49 -49 -16 -216 -74 -370 -127
-154 -53 -300 -103 -325 -112 -25 -8 -49 -19 -54 -23 -9 -9 -15 -390 -6 -390
6 0 288 83 412 121 37 11 71 18 75 16 5 -3 8 -363 8 -801 l0 -796 255 0 255 0
0 1090 0 1090 -30 -1 c-16 0 -52 -8 -80 -18z"/>
</g>
</svg>
